<svg xmlns="http://www.w3.org/2000/svg" viewBox="0 0 1600 1000" width="1600" height="1000">
  <defs>
    <linearGradient id="bg" x1="0" y1="0" x2="1" y2="1">
      <stop offset="0" stop-color="#101113"/>
      <stop offset=".48" stop-color="#17181b"/>
      <stop offset="1" stop-color="#0c0d0f"/>
    </linearGradient>
    <radialGradient id="glowA" cx=".1" cy=".14" r=".55">
      <stop offset="0" stop-color="#ffd43b" stop-opacity=".22"/>
      <stop offset=".48" stop-color="#ffd43b" stop-opacity=".045"/>
      <stop offset="1" stop-color="#ffd43b" stop-opacity="0"/>
    </radialGradient>
    <radialGradient id="glowB" cx=".9" cy=".18" r=".55">
      <stop offset="0" stop-color="#fcc419" stop-opacity=".17"/>
      <stop offset=".55" stop-color="#fcc419" stop-opacity=".035"/>
      <stop offset="1" stop-color="#fcc419" stop-opacity="0"/>
    </radialGradient>
    <linearGradient id="wave" x1="0" y1="0" x2="1" y2=".1">
      <stop offset="0" stop-color="#ffd43b" stop-opacity="0"/>
      <stop offset=".2" stop-color="#ffd43b" stop-opacity=".28"/>
      <stop offset=".55" stop-color="#ffe066" stop-opacity=".52"/>
      <stop offset=".82" stop-color="#fcc419" stop-opacity=".27"/>
      <stop offset="1" stop-color="#fcc419" stop-opacity="0"/>
    </linearGradient>
    <pattern id="grid" width="52" height="52" patternUnits="userSpaceOnUse">
      <path d="M52 0H0V52" fill="none" stroke="#f8f9fa" stroke-opacity=".025" stroke-width="1"/>
    </pattern>
    <filter id="blur"><feGaussianBlur stdDeviation="34"/></filter>
    <filter id="soft"><feGaussianBlur stdDeviation="10"/></filter>
  </defs>

  <rect width="1600" height="1000" fill="url(#bg)"/>
  <rect width="1600" height="1000" fill="url(#grid)"/>
  <rect width="1600" height="1000" fill="url(#glowA)"/>
  <rect width="1600" height="1000" fill="url(#glowB)"/>

  <circle cx="80" cy="88" r="250" fill="#ffd43b" opacity=".045" filter="url(#blur)"/>
  <circle cx="1490" cy="210" r="290" fill="#fcc419" opacity=".04" filter="url(#blur)"/>

  <g fill="none" stroke="#ffd43b">
    <circle cx="90" cy="150" r="205" opacity=".16" stroke-width="1.5"/>
    <circle cx="90" cy="150" r="258" opacity=".07" stroke-width="1"/>
    <path d="M-80 244 A270 270 0 0 0 355 -7" opacity=".26" stroke-width="2"/>
    <circle cx="1472" cy="260" r="186" opacity=".16" stroke-width="1.4"/>
    <circle cx="1472" cy="260" r="242" opacity=".07"/>
    <path d="M1338 40 A260 260 0 0 1 1618 520" opacity=".24" stroke-width="2"/>
  </g>

  <g stroke="#ffd43b" fill="none" opacity=".16">
    <rect x="76" y="295" width="92" height="118" rx="10"/>
    <path d="M96 324h51M96 344h38M96 364h44"/>
    <rect x="1430" y="460" width="92" height="118" rx="10"/>
    <path d="M1450 489h51M1450 509h34M1450 529h45"/>
  </g>

  <g opacity=".22" fill="#ffd43b">
    <circle cx="372" cy="110" r="3"/>
    <circle cx="440" cy="168" r="2"/>
    <circle cx="1268" cy="92" r="3"/>
    <circle cx="1364" cy="154" r="2"/>
    <circle cx="118" cy="520" r="3"/>
    <circle cx="1516" cy="660" r="3"/>
    <circle cx="980" cy="140" r="2"/>
    <circle cx="1080" cy="210" r="2"/>
  </g>

  <path d="M-70 780 C210 620 360 850 610 714 S1060 560 1290 676 S1510 788 1680 596"
        fill="none" stroke="url(#wave)" stroke-width="3.2"/>
  <path d="M-80 816 C210 658 392 884 640 746 S1072 602 1320 708 S1516 826 1690 628"
        fill="none" stroke="#ffd43b" stroke-opacity=".12" stroke-width="1.4"/>
  <path d="M-90 854 C220 692 420 920 676 786 S1080 646 1340 744 S1530 860 1700 664"
        fill="none" stroke="#ffd43b" stroke-opacity=".07" stroke-width="1"/>

  <g fill="#ffd43b" opacity=".28">
    <circle cx="300" cy="741" r="3.5"/>
    <circle cx="421" cy="786" r="2.5"/>
    <circle cx="590" cy="735" r="3"/>
    <circle cx="870" cy="650" r="2.5"/>
    <circle cx="1098" cy="624" r="3"/>
    <circle cx="1324" cy="708" r="3"/>
  </g>

  <g stroke="#ffd43b" stroke-opacity=".10" fill="none">
    <path d="M1250 315h126l38 38v95"/>
    <circle cx="1250" cy="315" r="6" fill="#ffd43b" fill-opacity=".32"/>
    <circle cx="1414" cy="448" r="6" fill="#ffd43b" fill-opacity=".28"/>
    <path d="M214 535h108l42-42h105"/>
    <circle cx="214" cy="535" r="5" fill="#ffd43b" fill-opacity=".25"/>
    <circle cx="469" cy="493" r="5" fill="#ffd43b" fill-opacity=".25"/>
  </g>
</svg>